<!-- icon666.com - MILLIONS vector ICONS FREE --><svg id="Flat_Gradient" viewBox="0 0 64 64" xmlns="http://www.w3.org/2000/svg" xmlns:xlink="http://www.w3.org/1999/xlink" data-name="Flat Gradient"><linearGradient id="linear-gradient" gradientUnits="userSpaceOnUse" x1="3.5" x2="60.5" y1="32" y2="32"><stop offset="0" stop-color="#c0392b"></stop><stop offset="1" stop-color="#8e44ad"></stop></linearGradient><path d="m24.5 41.75v12a4.50681 4.50681 0 0 1 -4.5 4.5h-3a4.51825 4.51825 0 0 1 -4.5-4.5v-12a4.51821 4.51821 0 0 1 4.5-4.5h3a4.50677 4.50677 0 0 1 4.5 4.5zm7.5-36a28.53862 28.53862 0 0 0 -28.5 28.5v13.5a8.239 8.239 0 0 0 6.28 8.01 7.1745 7.1745 0 0 1 -.28-2.01v-12a7.47778 7.47778 0 0 1 .27-2 7.97749 7.97749 0 0 0 -3.27 1.65v-7.15a25.5 25.5 0 0 1 51 0v7.15a7.97749 7.97749 0 0 0 -3.27-1.65 7.47778 7.47778 0 0 1 .27 2v12a7.1745 7.1745 0 0 1 -.28 2.01 8.25869 8.25869 0 0 0 6.28-8.01v-13.5a28.53862 28.53862 0 0 0 -28.5-28.5zm15 31.5h-3a4.50677 4.50677 0 0 0 -4.5 4.5v12a4.50681 4.50681 0 0 0 4.5 4.5h3a4.50518 4.50518 0 0 0 3.89-2.25 4.408 4.408 0 0 0 .61-2.25v-12a4.51817 4.51817 0 0 0 -4.5-4.5z" fill="url(#linear-gradient)" style="fill: rgb(89, 243, 225);"></path></svg>