<!-- icon666.com - MILLIONS vector ICONS FREE --><svg fill="none" viewBox="0 0 24 24" xmlns="http://www.w3.org/2000/svg"><path d="m11.97 2c-5.52003 0-10.00003 4.48-10.00003 10s4.48 10 10.00003 10c5.52 0 10-4.48 10-10s-4.47-10-10-10zm-1.25 13.03c0 .48-.2.67-.71.67h-1.30003c-.51 0-.71-.19-.71-.67v-6.06c0-.48.2-.67.71-.67h1.29c.51003 0 .71003.19.71003.67v6.06zm5.28 0c0 .48-.2.67-.71.67h-1.29c-.51 0-.71-.19-.71-.67v-6.06c0-.48.2-.67.71-.67h1.29c.51 0 .71.19.71.67z" fill="rgb(0,0,0)" style="fill: rgb(158, 154, 154);"></path></svg>