<!-- icon666.com - MILLIONS vector ICONS FREE --><svg viewBox="0 0 512 512" xmlns="http://www.w3.org/2000/svg" ><path d="m261.037 91.606a7.701 7.701 0 0 0 -5.9-2.02c-19.741 1.655-37.133 4.315-48.245 6.255-45.109 7.873-75.588 34.536-86.562 75.394l-35.455.002-.187-.002c-16.689.035-32.196 2.675-38.087 3.809-22.968 4.418-38.598 20.045-42.883 42.877-1.746 9.3-3.83 23.469-3.844 38.151-.016 16.634 2.691 32.223 3.856 38.152 4.52 23.015 19.728 38.218 42.824 42.803 5.663 1.125 20.714 3.742 38.207 3.742h35.588c11.287 41.004 41.768 67.723 86.543 75.538 10.853 1.894 28.039 4.491 48.274 6.114a7.76 7.76 0 0 0 5.882-2.032 7.76 7.76 0 0 0 2.494-5.701v-317.372a7.747 7.747 0 0 0 -2.505-5.71zm-176.445 233.647c-15.994-.008-29.811-2.411-35.015-3.445-16.759-3.328-27.348-13.9-30.623-30.574-1.077-5.483-3.58-19.884-3.564-35.149.013-14.206 2.247-28.217 3.577-35.304 3.137-16.712 13.705-27.259 30.565-30.503 5.459-1.05 19.816-3.497 35.183-3.529.015.001.03-.001.047 0h32.242c-2.774 15.227-6.641 41.377-6.702 69.068-.063 28.532 3.792 54.375 6.613 69.435l-32.154-.002c-.024.011-.112.001-.169.003zm163.436 80.959c-15.989-1.551-29.472-3.619-38.47-5.189-41.146-7.18-67.33-31.489-75.72-70.294-2.437-11.269-8.096-41.125-8.022-74.877.072-32.529 5.644-62.938 8.036-74.502 7.89-38.143 34.777-63.082 75.705-70.225a548.596 548.596 0 0 1 38.47-5.3v300.387zm119.276-100.112a7.73 7.73 0 0 1 -5.485-2.273 7.756 7.756 0 0 1 0-10.97c20.322-20.324 20.322-53.392 0-73.715a7.758 7.758 0 0 1 10.97-10.972c26.373 26.373 26.373 69.285 0 95.656a7.722 7.722 0 0 1 -5.485 2.274zm42.343 42.343a7.733 7.733 0 0 1 -5.485-2.273 7.756 7.756 0 0 1 0-10.97c43.669-43.672 43.669-114.73 0-158.401a7.758 7.758 0 0 1 10.97-10.972c49.72 49.721 49.72 130.622 0 180.342a7.728 7.728 0 0 1 -5.485 2.274z" fill="#000000" style="fill: rgb(107, 107, 107);"></path><path d="m451.499 390.785a7.733 7.733 0 0 1 -5.485-2.273 7.756 7.756 0 0 1 0-10.97c32.466-32.466 50.345-75.631 50.345-121.544 0-45.912-17.879-89.077-50.345-121.542a7.758 7.758 0 0 1 10.97-10.972c35.398 35.396 54.89 82.456 54.89 132.513s-19.492 97.119-54.89 132.513a7.72 7.72 0 0 1 -5.485 2.275z" fill="#000000" style="fill: rgb(107, 107, 107);"></path></svg>