<!-- icon666.com - MILLIONS vector ICONS FREE --><svg style="fill: #7e808f" viewBox="0 0 24 24" xmlns="http://www.w3.org/2000/svg"><path d="m5 22.0001h14c.5304 0 1.0391-.2108 1.4142-.5858.3751-.3751.5858-.8838.5858-1.4142v-9c.0008-.1316-.0245-.2621-.0742-.3839-.0498-.1219-.1231-.2327-.2158-.3261l-8-8.00004c-.1874-.18625-.4408-.29079-.705-.29079s-.5176.10454-.705.29079l-8 8.00004c-.09449.0926-.16966.203-.22115.3249-.0515.1219-.0783.2528-.07885.3851v9c0 .5304.21071 1.0391.58579 1.4142.37507.375.88378.5858 1.41421.5858zm5-2v-5h4v5zm-5-8.59 7-7.00004 7 7.00004v8.59h-3v-5c0-.5305-.2107-1.0392-.5858-1.4143-.3751-.375-.8838-.5857-1.4142-.5857h-4c-.53043 0-1.03914.2107-1.41421.5857-.37508.3751-.58579.8838-.58579 1.4143v5h-3z" fill="rgb(0,0,0)" style="fill: rgb(176, 176, 176);"></path></svg>