<!-- icon666.com - MILLIONS vector ICONS FREE --><svg id="Layer_1" viewBox="0 0 512 512" xmlns="http://www.w3.org/2000/svg" data-name="Layer 1" style="fill: #7e808f"><path d="m482.52 330.1v-291.055a39.021 39.021 0 0 0 -44.852-38.581l-214.321 32.4a38.792 38.792 0 0 0 -33.188 38.581v295.774a88.535 88.535 0 0 0 -12.917-6.29c-21.332-8.365-46.7-9.322-71.439-2.693-24.737 6.629-46.231 20.143-60.523 38.052-15.425 19.33-20.842 41.463-15.254 62.322s21.347 37.32 44.374 46.347a106.648 106.648 0 0 0 38.874 7.051 126.068 126.068 0 0 0 32.566-4.36c24.737-6.628 46.231-20.141 60.523-38.05 14.886-18.654 20.448-39.918 15.8-60.129 0-.012 0-.025 0-.037v-266.258l228.357-38.292v182.958a88.675 88.675 0 0 0 -12.916-6.29c-21.333-8.362-46.7-9.321-71.44-2.692s-46.231 20.142-60.523 38.051c-15.426 19.33-20.844 41.463-15.255 62.323s21.347 37.32 44.372 46.346a106.6 106.6 0 0 0 38.874 7.052 126.116 126.116 0 0 0 32.566-4.359c24.737-6.629 46.231-20.143 60.523-38.052 14.879-18.651 20.446-39.912 15.799-60.119zm-301.171 119.538c-10.059 12.6-25.612 22.229-43.793 27.1s-36.465 4.313-51.478-1.573c-13.322-5.224-22.251-14.043-25.142-24.837-6.362-23.739 17.977-51.758 53.149-61.182 35.172-9.423 70.261 2.671 76.62 26.412 2.895 10.793-.431 22.895-9.356 34.08zm40.81-338.91v-39.286a6.9 6.9 0 0 1 5.971-6.94l214.321-32.402a6.338 6.338 0 0 1 5.628 1.621 6.342 6.342 0 0 1 2.441 5.32v33.395zm219.55 259.531c-10.059 12.6-25.611 22.229-43.793 27.1-35.169 9.426-70.259-2.671-76.62-26.41s17.978-51.758 53.149-61.181a94.21 94.21 0 0 1 24.325-3.288 74.474 74.474 0 0 1 27.153 4.861c13.321 5.222 22.25 14.043 25.141 24.837s-.429 22.896-9.355 34.081z"></path></svg>