<!-- icon666.com - MILLIONS vector ICONS FREE --><svg id="svg8" viewBox="0 0 16.933333 16.933334" xmlns="http://www.w3.org/2000/svg" xmlns:svg="http://www.w3.org/2000/svg" style="fill: #7e808f"><pattern id="EMFhbasepattern" height="6" patternUnits="userSpaceOnUse" width="6" ></pattern><pattern id="EMFhbasepattern-8" height="6" patternUnits="userSpaceOnUse" width="6"></pattern><pattern id="EMFhbasepattern-5" height="6" patternUnits="userSpaceOnUse" width="6"></pattern><pattern id="EMFhbasepattern-3" height="6" patternUnits="userSpaceOnUse" width="6"></pattern><pattern id="EMFhbasepattern-2" height="6" patternUnits="userSpaceOnUse" width="6"></pattern><pattern id="EMFhbasepattern-4" height="6" patternUnits="userSpaceOnUse" width="6"></pattern><g id="layer1" transform="translate(0 -280.067)"><path id="path963" d="m14.075729 282.86075c-.02117 0-.04233 0-.0635 0l-8.4877714 2.73048v-.21167c0-.27516-.2328315-.50799-.5079956-.50799h-.84666c-.275165 0-.507996.23283-.507996.50799v1.05833h-1.015993c-.804327 0-1.460489.65616-1.460489 1.46049v4.8683c0 .78316.656162 1.43932 1.460489 1.43932h11.641581c.804327 0 1.460489-.65616 1.460489-1.43932v-4.8683c0-.80433-.656162-1.46049-1.460489-1.46049h-5.058796s-.021167 0-.042333 0c-.021167 0-.021167 0-.042333 0h-3.6194734v-.29633l8.6359364-2.77281c.296331-.0847.232832-.52917-.08467-.508zm-9.88476 2.53998h.804327v1.03716l-.804327-.0212zm-1.502823 1.56632h6.2441208l-.021166 6.70979h-6.2652878c-.507996 0-.931326-.40217-.931326-.91016v-4.8683c0-.59266.719661-.93133.973659-.93133zm6.7732835 0h4.8259645c.571496 0 .931327.762.931327.93133v4.8683c0 .50799-.423331.91016-.931327.91016h-4.8471309zm-5.8631235.33867c-.529162 0-.973659.42333-.973659.95249 0 .508.444497.93133.973659.93133.529163 0 .952493-.42333.952493-.93133 0-.52916-.42333-.95249-.952493-.95249zm2.518815 0c-.5291627 0-.952493.42333-.952493.95249 0 .508.4233303.93133.952493.93133s.9524929-.42333.9524929-.93133c0-.52916-.4233302-.95249-.9524929-.95249zm6.201788.40216c-1.39699 0-2.5188152 1.12183-2.5188152 2.51881 0 1.39699 1.1218252 2.53999 2.5188152 2.53999 1.418156 0 2.539981-1.143 2.539981-2.53999 0-1.39698-1.121825-2.51881-2.539981-2.51881zm-8.720603.127c.232832 0 .42333.1905.42333.42333s-.190498.40216-.42333.40216c-.253998 0-.444496-.16933-.444496-.40216s.190498-.42333.444496-.42333zm2.518815 0c.2539982 0 .4233302.1905.4233302.42333s-.169332.40216-.4233302.40216c-.2328317 0-.4233301-.16933-.4233301-.40216s.1904984-.42333.4233301-.42333zm6.201788.40216c1.121825 0 2.010818.889 2.010818 1.98965 0 1.12183-.888993 2.01082-2.010818 2.01082-1.100659 0-1.989652-.88899-1.989652-2.01082 0-1.10065.888993-1.98965 1.989652-1.98965zm-9.694262 1.33349c-.359831 0-.359831.52917 0 .52917l5.1011288.0212c.3598307 0 .3598307-.55033 0-.52916zm-.02117 1.29116c-.359831.0423-.338664.55033.02117.52916l5.1011288.0212c.3598307.0212.3598307-.52916 0-.52916l-5.1011288-.0212c-.02117 0-.02117 0-.02117 0zm.02117 1.37582c-.359831-.0212-.359831.52917 0 .52917h5.1011288c.3598307.0212.3598307-.52917 0-.52917z" fill-rule="evenodd"></path></g></svg>