<!-- icon666.com - MILLIONS vector ICONS FREE --><svg viewBox="0 0 32 32" xmlns="http://www.w3.org/2000/svg" xmlns:xlink="http://www.w3.org/1999/xlink"><linearGradient id="Gradient-Icon_copy" gradientUnits="userSpaceOnUse" x1="10.104" x2="24.432" y1="31.142" y2="6.324"><stop offset="0" stop-color="#4c46c8"></stop><stop offset="1" stop-color="#87bfff"></stop></linearGradient><g id="Layer_2" data-name="Layer 2"><path d="m26 17.35v-4.35a10 10 0 0 0 -20 0v4.35a6 6 0 0 0 2 11.65h2a3 3 0 0 0 3-3v-6a3 3 0 0 0 -3-3h-2v-4a8 8 0 0 1 16 0v4h-2a3 3 0 0 0 -3 3v6a3 3 0 0 0 3 3h2a6 6 0 0 0 2-11.65zm-22 5.65a3.987 3.987 0 0 1 2-3.444v6.888a3.987 3.987 0 0 1 -2-3.444zm6-4a1 1 0 0 1 1 1v6a1 1 0 0 1 -1 1h-2v-8zm12 8a1 1 0 0 1 -1-1v-6a1 1 0 0 1 1-1h2v8zm4-.556v-6.888a3.965 3.965 0 0 1 0 6.888z" fill="url(#Gradient-Icon_copy)" style="fill: rgb(58, 239, 242);"></path></g></svg>